<svg width="136" height="40" viewBox="0 0 136 40" fill="none" xmlns="http://www.w3.org/2000/svg">
<path d="M22.97 30.75H16.97C11.54 30.75 9.21997 28.43 9.21997 23V17C9.21997 11.57 11.54 9.25 16.97 9.25H22.97C28.4 9.25 30.72 11.57 30.72 17V23C30.72 28.43 28.41 30.75 22.97 30.75ZM16.97 10.75C12.36 10.75 10.72 12.39 10.72 17V23C10.72 27.61 12.36 29.25 16.97 29.25H22.97C27.58 29.25 29.22 27.61 29.22 23V17C29.22 12.39 27.58 10.75 22.97 10.75H16.97Z" fill="#64C661"/>
<path d="M19.45 26.06C19.21 26.06 18.63 25.97 18.29 25.1L17.15 22.22C16.99 21.81 16.42 21.43 15.99 21.43L9.98999 21.45C9.57999 21.45 9.23999 21.12 9.23999 20.7C9.23999 20.29 9.56999 19.95 9.98999 19.95L15.99 19.93H16C17.05 19.93 18.17 20.69 18.56 21.67L19.47 23.97L21.53 18.75C21.84 17.97 22.39 17.86 22.62 17.84C22.85 17.83 23.41 17.88 23.8 18.62L24.84 20.59C25.02 20.93 25.56 21.26 25.95 21.26H30.01C30.42 21.26 30.76 21.6 30.76 22.01C30.76 22.42 30.42 22.76 30.01 22.76H25.95C25 22.76 23.96 22.13 23.52 21.29L22.74 19.81L20.64 25.1C20.27 25.96 19.68 26.06 19.45 26.06Z" fill="#64C661"/>
<path d="M39.544 26.18C38.536 26.18 37.564 25.982 36.628 25.586C35.692 25.19 34.864 24.632 34.144 23.912L35.296 22.58C35.98 23.252 36.676 23.75 37.384 24.074C38.104 24.398 38.854 24.56 39.634 24.56C40.246 24.56 40.78 24.476 41.236 24.308C41.704 24.128 42.064 23.876 42.316 23.552C42.568 23.228 42.694 22.862 42.694 22.454C42.694 21.89 42.496 21.458 42.1 21.158C41.704 20.858 41.05 20.63 40.138 20.474L38.032 20.132C36.88 19.928 36.016 19.556 35.44 19.016C34.876 18.476 34.594 17.756 34.594 16.856C34.594 16.136 34.786 15.506 35.17 14.966C35.554 14.414 36.094 13.988 36.79 13.688C37.498 13.388 38.314 13.238 39.238 13.238C40.15 13.238 41.044 13.388 41.92 13.688C42.808 13.976 43.606 14.396 44.314 14.948L43.27 16.388C41.914 15.356 40.54 14.84 39.148 14.84C38.596 14.84 38.116 14.918 37.708 15.074C37.3 15.23 36.982 15.452 36.754 15.74C36.526 16.016 36.412 16.34 36.412 16.712C36.412 17.228 36.586 17.624 36.934 17.9C37.282 18.164 37.858 18.356 38.662 18.476L40.696 18.818C42.028 19.034 43.006 19.424 43.63 19.988C44.254 20.552 44.566 21.326 44.566 22.31C44.566 23.078 44.356 23.756 43.936 24.344C43.516 24.92 42.928 25.37 42.172 25.694C41.416 26.018 40.54 26.18 39.544 26.18ZM50.6328 26.18C49.7448 26.18 48.9348 25.97 48.2028 25.55C47.4828 25.13 46.9128 24.56 46.4928 23.84C46.0728 23.12 45.8628 22.316 45.8628 21.428C45.8628 20.54 46.0728 19.736 46.4928 19.016C46.9128 18.296 47.4828 17.726 48.2028 17.306C48.9348 16.874 49.7448 16.658 50.6328 16.658C51.5328 16.658 52.3428 16.874 53.0628 17.306C53.7828 17.726 54.3528 18.296 54.7728 19.016C55.1928 19.736 55.4028 20.54 55.4028 21.428C55.4028 22.316 55.1928 23.12 54.7728 23.84C54.3528 24.56 53.7828 25.13 53.0628 25.55C52.3428 25.97 51.5328 26.18 50.6328 26.18ZM50.6328 24.596C51.1968 24.596 51.7068 24.458 52.1628 24.182C52.6188 23.894 52.9788 23.51 53.2428 23.03C53.5068 22.55 53.6388 22.01 53.6388 21.41C53.6388 20.822 53.5008 20.294 53.2248 19.826C52.9608 19.346 52.6008 18.962 52.1448 18.674C51.7008 18.386 51.1968 18.242 50.6328 18.242C50.0688 18.242 49.5588 18.386 49.1028 18.674C48.6588 18.962 48.2988 19.346 48.0228 19.826C47.7588 20.294 47.6268 20.822 47.6268 21.41C47.6268 22.01 47.7588 22.55 48.0228 23.03C48.2868 23.51 48.6468 23.894 49.1028 24.182C49.5588 24.458 50.0688 24.596 50.6328 24.596ZM61.407 26.162C60.531 26.162 59.733 25.952 59.013 25.532C58.293 25.112 57.723 24.542 57.303 23.822C56.895 23.102 56.691 22.298 56.691 21.41C56.691 20.522 56.901 19.724 57.321 19.016C57.741 18.296 58.305 17.726 59.013 17.306C59.733 16.874 60.531 16.658 61.407 16.658C62.103 16.658 62.769 16.79 63.405 17.054C64.053 17.318 64.611 17.69 65.079 18.17L63.963 19.412C63.615 19.028 63.225 18.74 62.793 18.548C62.361 18.356 61.911 18.26 61.443 18.26C60.891 18.26 60.387 18.398 59.931 18.674C59.487 18.95 59.133 19.328 58.869 19.808C58.605 20.288 58.473 20.822 58.473 21.41C58.473 21.998 58.605 22.532 58.869 23.012C59.133 23.492 59.493 23.876 59.949 24.164C60.405 24.44 60.915 24.578 61.479 24.578C61.947 24.578 62.385 24.488 62.793 24.308C63.201 24.116 63.585 23.84 63.945 23.48L65.043 24.632C64.563 25.124 64.005 25.502 63.369 25.766C62.745 26.03 62.091 26.162 61.407 26.162ZM66.4917 26V16.838H68.2917V26H66.4917ZM67.3917 15.362C67.0917 15.362 66.8337 15.254 66.6177 15.038C66.4017 14.81 66.2937 14.546 66.2937 14.246C66.2937 13.934 66.4017 13.676 66.6177 13.472C66.8337 13.256 67.0917 13.148 67.3917 13.148C67.7037 13.148 67.9677 13.256 68.1837 13.472C68.3997 13.676 68.5077 13.934 68.5077 14.246C68.5077 14.546 68.3997 14.81 68.1837 15.038C67.9677 15.254 67.7037 15.362 67.3917 15.362ZM73.3096 26.162C72.6496 26.162 72.0676 26.048 71.5636 25.82C71.0596 25.58 70.6636 25.25 70.3756 24.83C70.0876 24.41 69.9436 23.924 69.9436 23.372C69.9436 22.508 70.2736 21.83 70.9336 21.338C71.5936 20.834 72.4996 20.582 73.6516 20.582C74.5516 20.582 75.3856 20.756 76.1536 21.104V20.132C76.1536 19.472 75.9616 18.98 75.5776 18.656C75.2056 18.332 74.6536 18.17 73.9216 18.17C73.5016 18.17 73.0636 18.236 72.6076 18.368C72.1516 18.488 71.6416 18.68 71.0776 18.944L70.4116 17.594C71.1076 17.27 71.7556 17.036 72.3556 16.892C72.9556 16.736 73.5616 16.658 74.1736 16.658C75.3616 16.658 76.2796 16.94 76.9276 17.504C77.5876 18.068 77.9176 18.872 77.9176 19.916V26H76.1536V25.208C75.7456 25.532 75.3076 25.772 74.8396 25.928C74.3716 26.084 73.8616 26.162 73.3096 26.162ZM71.6716 23.336C71.6716 23.78 71.8576 24.14 72.2296 24.416C72.6136 24.692 73.1116 24.83 73.7236 24.83C74.2036 24.83 74.6416 24.758 75.0376 24.614C75.4456 24.47 75.8176 24.248 76.1536 23.948V22.4C75.8056 22.196 75.4396 22.052 75.0556 21.968C74.6836 21.872 74.2636 21.824 73.7956 21.824C73.1356 21.824 72.6136 21.962 72.2296 22.238C71.8576 22.502 71.6716 22.868 71.6716 23.336ZM79.9917 26V13.4L81.7917 13.058V26H79.9917ZM84.1276 26V13.4H89.9596C90.7876 13.4 91.5076 13.562 92.1196 13.886C92.7316 14.198 93.2116 14.636 93.5596 15.2C93.9076 15.764 94.0816 16.418 94.0816 17.162C94.0816 17.906 93.9076 18.56 93.5596 19.124C93.2116 19.688 92.7256 20.132 92.1016 20.456C91.4896 20.768 90.7756 20.924 89.9596 20.924H86.0176V26H84.1276ZM86.0176 19.322H89.7616C90.5056 19.322 91.0936 19.13 91.5256 18.746C91.9696 18.35 92.1916 17.828 92.1916 17.18C92.1916 16.532 91.9696 16.016 91.5256 15.632C91.0936 15.248 90.5056 15.056 89.7616 15.056H86.0176V19.322ZM99.1822 26.18C98.4742 26.18 97.8502 26.03 97.3102 25.73C96.7702 25.43 96.3502 25.01 96.0502 24.47C95.7502 23.918 95.6002 23.288 95.6002 22.58V16.838H97.3822V22.274C97.3822 22.994 97.5862 23.564 97.9942 23.984C98.4142 24.404 98.9722 24.614 99.6682 24.614C100.16 24.614 100.598 24.512 100.982 24.308C101.366 24.092 101.678 23.792 101.918 23.408V16.838H103.718V26H101.918V25.064C101.21 25.808 100.298 26.18 99.1822 26.18ZM105.849 26V13.4L107.649 13.058V26H105.849ZM112.919 26.18C112.127 26.18 111.383 26.066 110.687 25.838C110.003 25.598 109.409 25.262 108.905 24.83L109.895 23.642C110.363 24.014 110.843 24.302 111.335 24.506C111.839 24.698 112.349 24.794 112.865 24.794C113.513 24.794 114.041 24.668 114.449 24.416C114.857 24.164 115.061 23.834 115.061 23.426C115.061 23.09 114.941 22.826 114.701 22.634C114.461 22.442 114.089 22.31 113.585 22.238L111.929 22.004C111.017 21.872 110.333 21.59 109.877 21.158C109.421 20.726 109.193 20.15 109.193 19.43C109.193 18.878 109.343 18.398 109.643 17.99C109.943 17.57 110.363 17.246 110.903 17.018C111.443 16.778 112.073 16.658 112.793 16.658C113.453 16.658 114.089 16.754 114.701 16.946C115.313 17.138 115.901 17.438 116.465 17.846L115.547 19.034C115.043 18.698 114.551 18.452 114.071 18.296C113.603 18.14 113.129 18.062 112.649 18.062C112.097 18.062 111.653 18.182 111.317 18.422C110.981 18.65 110.813 18.95 110.813 19.322C110.813 19.658 110.927 19.922 111.155 20.114C111.395 20.294 111.785 20.42 112.325 20.492L113.981 20.726C114.893 20.858 115.583 21.14 116.051 21.572C116.519 21.992 116.753 22.562 116.753 23.282C116.753 23.834 116.585 24.332 116.249 24.776C115.913 25.208 115.457 25.55 114.881 25.802C114.305 26.054 113.651 26.18 112.919 26.18ZM122.616 26.162C121.716 26.162 120.9 25.952 120.168 25.532C119.448 25.112 118.872 24.542 118.44 23.822C118.02 23.102 117.81 22.298 117.81 21.41C117.81 20.534 118.014 19.742 118.422 19.034C118.83 18.314 119.382 17.744 120.078 17.324C120.774 16.892 121.548 16.676 122.4 16.676C123.252 16.676 124.008 16.892 124.668 17.324C125.328 17.744 125.85 18.32 126.234 19.052C126.63 19.772 126.828 20.588 126.828 21.5V22.004H119.61C119.706 22.508 119.892 22.958 120.168 23.354C120.456 23.75 120.816 24.062 121.248 24.29C121.692 24.518 122.172 24.632 122.688 24.632C123.132 24.632 123.558 24.566 123.966 24.434C124.386 24.29 124.734 24.086 125.01 23.822L126.162 24.956C125.622 25.364 125.064 25.67 124.488 25.874C123.924 26.066 123.3 26.162 122.616 26.162ZM119.628 20.654H125.046C124.974 20.174 124.806 19.754 124.542 19.394C124.29 19.022 123.972 18.734 123.588 18.53C123.216 18.314 122.808 18.206 122.364 18.206C121.908 18.206 121.488 18.308 121.104 18.512C120.72 18.716 120.396 19.004 120.132 19.376C119.88 19.736 119.712 20.162 119.628 20.654Z" fill="#64C661"/>
</svg>
